<?xml version="1.0" encoding="UTF-8"?>
<svg width="73px" height="72px" viewBox="0 0 73 72" version="1.1" xmlns="http://www.w3.org/2000/svg" xmlns:xlink="http://www.w3.org/1999/xlink">
    <!-- Generator: Sketch 59 (86127) - https://sketch.com -->
    <title>Group</title>
    <desc>Created with Sketch.</desc>
    <defs>
        <filter x="-3.5%" y="-3.0%" width="106.9%" height="106.1%" filterUnits="objectBoundingBox" id="filter-1">
            <feOffset dx="0" dy="2" in="SourceAlpha" result="shadowOffsetOuter1"></feOffset>
            <feGaussianBlur stdDeviation="2" in="shadowOffsetOuter1" result="shadowBlurOuter1"></feGaussianBlur>
            <feColorMatrix values="0 0 0 0 0   0 0 0 0 0   0 0 0 0 0  0 0 0 0.5 0" type="matrix" in="shadowBlurOuter1" result="shadowMatrixOuter1"></feColorMatrix>
            <feMerge>
                <feMergeNode in="shadowMatrixOuter1"></feMergeNode>
                <feMergeNode in="SourceGraphic"></feMergeNode>
            </feMerge>
        </filter>
    </defs>
    <g id="04-Hi-Fi" stroke="none" stroke-width="1" fill="none" fill-rule="evenodd">
        <g id="37" transform="translate(-510.000000, -791.000000)" fill="#000000" fill-rule="nonzero">
            <g id="Group-9-Copy" transform="translate(81.000000, 723.000000)">
                <g id="Group-6" filter="url(#filter-1)" transform="translate(402.000000, 0.000000)">
                    <g id="Group-2" transform="translate(31.000000, 70.000000)">
                        <g id="Group" transform="translate(0.000000, 0.000000)">
                            <path d="M32.4872387,0 C14.8367124,0 0.487238712,14.3494737 0.487238712,32 C0.487238712,49.6505263 14.8367124,64 32.4872387,64 C50.137765,64 64.4872387,49.6505263 64.4872387,32 C64.4872387,14.3494737 50.137765,0 32.4872387,0 Z M32.4872387,56.7915789 C18.8114492,56.7915789 7.69565977,45.6757895 7.69565977,32 C7.69565977,18.3242105 18.8114492,7.20842105 32.4872387,7.20842105 C46.1630282,7.20842105 57.2788177,18.3242105 57.2788177,32 C57.2788177,45.6757895 46.1630282,56.7915789 32.4872387,56.7915789 Z" id="Shape"></path>
                            <path d="M47.9988252,28.6195846 L42.1735132,28.6195846 C41.0219981,28.6195846 40.0059553,29.2871504 39.531802,30.3552558 L37.2965079,35.495513 L30.3196808,19.0066361 C29.4391104,16.9371819 25.9168287,16.9371819 25.0362583,19.0066361 L20.904351,28.6195846 L16.9079161,28.6195846 C15.3499838,28.6195846 14.0629963,29.8879597 14.0629963,31.4233612 C14.0629963,32.9587627 15.3499838,34.2271378 16.9079161,34.2271378 L22.8009642,34.2271378 C23.9524794,34.2271378 24.9685221,33.559572 25.4426754,32.4914666 L27.6779696,27.3512094 L34.7225328,43.8400863 C35.1966861,44.9081917 36.2127289,45.5757576 37.3642441,45.5757576 C38.5157592,45.5757576 39.531802,44.9081917 40.0059553,43.8400863 L44.1378626,34.2271378 L48.0665614,34.2271378 C49.6244936,34.2271378 50.9114811,32.9587627 50.9114811,31.4233612 C50.9114811,29.8879597 49.6244936,28.6195846 47.9988252,28.6195846 Z" id="Path"></path>
                        </g>
                    </g>
                </g>
            </g>
        </g>
    </g>
</svg>