<?xml version="1.0" encoding="UTF-8"?>
<svg width="67px" height="64px" viewBox="0 0 67 64" version="1.1" xmlns="http://www.w3.org/2000/svg" xmlns:xlink="http://www.w3.org/1999/xlink">
    <!-- Generator: Sketch 59.1 (86144) - https://sketch.com -->
    <title>noun_customize_2434822</title>
    <desc>Created with Sketch.</desc>
    <g id="04-Hi-Fi" stroke="none" stroke-width="1" fill="none" fill-rule="evenodd">
        <g id="44" transform="translate(-912.000000, -824.000000)" fill="#000000" fill-rule="nonzero">
            <g id="noun_customize_2434822" transform="translate(912.000000, 824.000000)">
                <g id="Group">
                    <path d="M1.81458333,13.3565217 L13.4697917,13.3565217 L13.4697917,18.5043478 C13.4697917,19.2 14.028125,19.826087 14.7958333,19.826087 L23.3802083,19.826087 C24.078125,19.826087 24.70625,19.2695652 24.70625,18.5043478 L24.70625,1.53043478 C24.70625,0.834782609 24.1479167,0.208695652 23.3802083,0.208695652 L14.865625,0.208695652 C14.1677083,0.208695652 13.5395833,0.765217391 13.5395833,1.53043478 L13.5395833,6.67826087 L1.81458333,6.67826087 C0.977083333,6.67826087 0.348958333,7.37391304 0.348958333,8.13913043 L0.348958333,11.826087 C0.348958333,12.7304348 1.046875,13.3565217 1.81458333,13.3565217 Z" id="Path"></path>
                    <path d="M65.1854167,6.67826087 L28.9635417,6.67826087 L28.9635417,13.3565217 L65.115625,13.3565217 C65.953125,13.3565217 66.58125,12.6608696 66.58125,11.8956522 L66.58125,8.20869565 C66.6510417,7.30434783 65.953125,6.67826087 65.1854167,6.67826087 Z" id="Path"></path>
                    <path d="M65.1854167,28.6608696 L52.134375,28.6608696 L52.134375,35.3391304 L65.115625,35.3391304 C65.953125,35.3391304 66.58125,34.6434783 66.58125,33.8782609 L66.58125,30.1913043 C66.6510417,29.2869565 65.953125,28.6608696 65.1854167,28.6608696 Z" id="Path"></path>
                    <path d="M1.81458333,35.3391304 L36.640625,35.3391304 L36.640625,40.4869565 C36.640625,41.1826087 37.1989583,41.8086957 37.9666667,41.8086957 L46.5510417,41.8086957 C47.2489583,41.8086957 47.8770833,41.2521739 47.8770833,40.4869565 L47.8770833,23.5130435 C47.8770833,22.8173913 47.31875,22.1913043 46.5510417,22.1913043 L38.0364583,22.1913043 C37.3385417,22.1913043 36.7104167,22.7478261 36.7104167,23.5130435 L36.7104167,28.6608696 L1.81458333,28.6608696 C0.977083333,28.6608696 0.348958333,29.3565217 0.348958333,30.1217391 L0.348958333,33.8086957 C0.348958333,34.7130435 1.046875,35.3391304 1.81458333,35.3391304 Z" id="Path"></path>
                    <path d="M65.1854167,50.6434783 L28.9635417,50.6434783 L28.9635417,57.3217391 L65.115625,57.3217391 C65.953125,57.3217391 66.58125,56.626087 66.58125,55.8608696 L66.58125,52.173913 C66.6510417,51.3391304 65.953125,50.6434783 65.1854167,50.6434783 Z" id="Path"></path>
                    <path d="M23.3802083,44.173913 L14.865625,44.173913 C14.1677083,44.173913 13.5395833,44.7304348 13.5395833,45.4956522 L13.5395833,50.6434783 L1.81458333,50.6434783 C0.977083333,50.6434783 0.348958333,51.3391304 0.348958333,52.1043478 L0.348958333,55.7913043 C0.348958333,56.626087 1.046875,57.2521739 1.81458333,57.2521739 L13.4697917,57.2521739 L13.4697917,62.4 C13.4697917,63.0956522 14.028125,63.7217391 14.7958333,63.7217391 L23.3802083,63.7217391 C24.078125,63.7217391 24.70625,63.1652174 24.70625,62.4 L24.70625,45.4956522 C24.70625,44.7304348 24.1479167,44.173913 23.3802083,44.173913 Z" id="Path"></path>
                </g>
            </g>
        </g>
    </g>
</svg>