<?xml version="1.0" encoding="UTF-8"?>
<svg width="591px" height="487px" viewBox="0 0 591 487" version="1.1" xmlns="http://www.w3.org/2000/svg" xmlns:xlink="http://www.w3.org/1999/xlink">
    <!-- Generator: Sketch 59 (86127) - https://sketch.com -->
    <title>Banner_illustration</title>
    <desc>Created with Sketch.</desc>
    <defs>
        <linearGradient x1="0%" y1="47.3555898%" x2="102.808408%" y2="55.5903576%" id="linearGradient-1">
            <stop stop-color="#3C89FF" offset="0%"></stop>
            <stop stop-color="#00BAB7" offset="100%"></stop>
        </linearGradient>
        <linearGradient x1="0%" y1="47.2561291%" x2="102.808408%" y2="55.8006204%" id="linearGradient-2">
            <stop stop-color="#3C89FF" offset="0%"></stop>
            <stop stop-color="#00BAB7" offset="100%"></stop>
        </linearGradient>
        <linearGradient x1="0%" y1="47.2925921%" x2="102.808408%" y2="55.7235366%" id="linearGradient-3">
            <stop stop-color="#3C89FF" offset="0%"></stop>
            <stop stop-color="#00BAB7" offset="100%"></stop>
        </linearGradient>
        <linearGradient x1="0%" y1="47.3464695%" x2="102.808408%" y2="55.6096382%" id="linearGradient-4">
            <stop stop-color="#3C89FF" offset="0%"></stop>
            <stop stop-color="#00BAB7" offset="100%"></stop>
        </linearGradient>
        <linearGradient x1="0%" y1="47.3819678%" x2="102.808408%" y2="55.5345937%" id="linearGradient-5">
            <stop stop-color="#3C89FF" offset="0%"></stop>
            <stop stop-color="#00BAB7" offset="100%"></stop>
        </linearGradient>
        <linearGradient x1="0%" y1="47.3107321%" x2="102.808408%" y2="55.6851881%" id="linearGradient-6">
            <stop stop-color="#3C89FF" offset="0%"></stop>
            <stop stop-color="#00BAB7" offset="100%"></stop>
        </linearGradient>
        <linearGradient x1="1.88972977%" y1="43.8567266%" x2="100%" y2="56.1353008%" id="linearGradient-7">
            <stop stop-color="#3C89FF" offset="0%"></stop>
            <stop stop-color="#00BAB7" offset="100%"></stop>
        </linearGradient>
        <path d="M1.07345394,47.4294385 L96.0109539,0.126938525 C96.5550845,-0.144173882 97.1949155,-0.144173882 97.7390461,0.126938525 L192.676546,47.4294385 C193.334275,47.7571514 193.75,48.4287548 193.75,49.1636042 L193.75,83.4971101 C193.75,84.2319595 193.334275,84.9035629 192.676546,85.2312758 L97.7390461,132.533776 C97.1949155,132.804888 96.5550845,132.804888 96.0109539,132.533776 L1.07345394,85.2312758 C0.415724568,84.9035629 4.08343875e-15,84.2319595 0,83.4971101 L0,49.1636042 C-8.99930993e-17,48.4287548 0.415724568,47.7571514 1.07345394,47.4294385 Z" id="path-8"></path>
        <linearGradient x1="1.83667276%" y1="13.8310061%" x2="81.5403796%" y2="115.579497%" id="linearGradient-10">
            <stop stop-color="#00BAB7" stop-opacity="0" offset="0%"></stop>
            <stop stop-color="#006162" offset="100%"></stop>
        </linearGradient>
        <linearGradient x1="1.88972977%" y1="43.9591981%" x2="100%" y2="56.0329623%" id="linearGradient-11">
            <stop stop-color="#3C89FF" offset="0%"></stop>
            <stop stop-color="#00BAB7" offset="100%"></stop>
        </linearGradient>
        <path d="M1.07926579,46.7915227 L95.5323908,0.124509041 C96.0733352,-0.142758555 96.7079148,-0.142758555 97.2488592,0.124509041 L191.701984,46.7915227 C192.362904,47.118067 192.78125,47.7913844 192.78125,48.528572 L192.78125,82.3633328 C192.78125,83.1005204 192.362904,83.7738378 191.701984,84.1003821 L97.2488592,130.767396 C96.7079148,131.034663 96.0733352,131.034663 95.5323908,130.767396 L1.07926579,84.1003821 C0.41834645,83.7738378 -3.89222854e-15,83.1005204 0,82.3633328 L0,48.528572 C-3.15338514e-15,47.7913844 0.41834645,47.118067 1.07926579,46.7915227 Z" id="path-12"></path>
        <linearGradient x1="1.83667276%" y1="14.4343148%" x2="81.5403796%" y2="114.485613%" id="linearGradient-14">
            <stop stop-color="#00BAB7" stop-opacity="0" offset="0%"></stop>
            <stop stop-color="#006162" offset="100%"></stop>
        </linearGradient>
        <path d="M1.07926579,46.7915227 L95.5323908,0.124509041 C96.0733352,-0.142758555 96.7079148,-0.142758555 97.2488592,0.124509041 L191.701984,46.7915227 C192.362904,47.118067 192.78125,47.7913844 192.78125,48.528572 L192.78125,82.3633328 C192.78125,83.1005204 192.362904,83.7738378 191.701984,84.1003821 L97.2488592,130.767396 C96.7079148,131.034663 96.0733352,131.034663 95.5323908,130.767396 L1.07926579,84.1003821 C0.41834645,83.7738378 -3.89222854e-15,83.1005204 0,82.3633328 L0,48.528572 C-3.15338514e-15,47.7913844 0.41834645,47.118067 1.07926579,46.7915227 Z" id="path-15"></path>
        <linearGradient x1="0%" y1="47.2836364%" x2="102.808408%" y2="55.7424692%" id="linearGradient-17">
            <stop stop-color="#3C89FF" offset="0%"></stop>
            <stop stop-color="#00BAB7" offset="100%"></stop>
        </linearGradient>
        <linearGradient x1="1.88972977%" y1="43.79483%" x2="100%" y2="56.197117%" id="linearGradient-18">
            <stop stop-color="#3C89FF" offset="0%"></stop>
            <stop stop-color="#00BAB7" offset="100%"></stop>
        </linearGradient>
        <path d="M1.06998074,47.4284901 L95.5231057,0.130841107 C96.069135,-0.142584453 96.712115,-0.142584453 97.2581443,0.130841107 L191.711269,47.4284901 C192.36709,47.756894 192.78125,48.4274701 192.78125,49.1609209 L192.78125,83.4997934 C192.78125,84.2332442 192.36709,84.9038203 191.711269,85.2322242 L97.2581443,132.529873 C96.712115,132.803299 96.069135,132.803299 95.5231057,132.529873 L1.06998074,85.2322242 C0.414159969,84.9038203 7.40337746e-15,84.2332442 0,83.4997934 L0,49.1609209 C-4.97480312e-15,48.4274701 0.414159969,47.756894 1.06998074,47.4284901 Z" id="path-19"></path>
        <linearGradient x1="1.83667276%" y1="13.4665853%" x2="81.5403796%" y2="116.240244%" id="linearGradient-21">
            <stop stop-color="#00BAB7" stop-opacity="0" offset="0%"></stop>
            <stop stop-color="#006162" offset="100%"></stop>
        </linearGradient>
    </defs>
    <g id="04-Hi-Fi" stroke="none" stroke-width="1" fill="none" fill-rule="evenodd">
        <g id="37" transform="translate(-638.000000, -95.000000)">
            <g id="Group-9" transform="translate(81.000000, 88.000000)">
                <g id="Banner_illustration" transform="translate(554.000000, 0.000000)">
                    <g id="Group-4">
                        <g id="short-box-bottom" transform="translate(100.000000, 150.000000)" fill="url(#linearGradient-1)">
                            <polygon id="Rectangle" points="3.109375 97.125 99.5 49.3333333 195.890625 97.125 99.5 144.916667"></polygon>
                        </g>
                        <g id="short-box-bottom" opacity="0.200000003" transform="translate(0.000000, 347.000000)" fill="url(#linearGradient-2)">
                            <polygon id="Rectangle" points="3.09375 98.4375 99 50 194.90625 98.4375 99 146.875"></polygon>
                        </g>
                        <g id="short-box-bottom" opacity="0.600000024" transform="translate(0.000000, 298.000000)" fill="url(#linearGradient-2)">
                            <polygon id="Rectangle" points="3.09375 98.4375 99 50 194.90625 98.4375 99 146.875"></polygon>
                        </g>
                        <g id="short-box-bottom" transform="translate(0.000000, 248.000000)" fill="url(#linearGradient-3)">
                            <polygon id="Rectangle" points="3.09375 97.78125 99 49.6666667 194.90625 97.78125 99 145.895833"></polygon>
                        </g>
                        <g id="short-box-bottom" opacity="0.5" transform="translate(198.000000, 199.000000)" fill="url(#linearGradient-1)">
                            <polygon id="Rectangle" points="3.109375 97.125 99.5 49.3333333 195.890625 97.125 99.5 144.916667"></polygon>
                        </g>
                        <g id="short-box-bottom" opacity="0.25" transform="translate(397.000000, 248.000000)" fill="url(#linearGradient-4)">
                            <polygon id="Rectangle" points="3.125 97.78125 100 49.6666667 196.875 97.78125 100 145.895833"></polygon>
                        </g>
                        <g id="short-box-bottom" opacity="0.5" transform="translate(397.000000, 199.000000)" fill="url(#linearGradient-5)">
                            <polygon id="Rectangle" points="3.125 97.125 100 49.3333333 196.875 97.125 100 144.916667"></polygon>
                        </g>
                        <g id="short-box-bottom" opacity="0.75" transform="translate(397.000000, 150.000000)" fill="url(#linearGradient-5)">
                            <polygon id="Rectangle" points="3.125 97.125 100 49.3333333 196.875 97.125 100 144.916667"></polygon>
                        </g>
                        <g id="short-box-bottom" transform="translate(397.000000, 100.000000)" fill="url(#linearGradient-5)">
                            <polygon id="Rectangle" points="3.125 97.125 100 49.3333333 196.875 97.125 100 144.916667"></polygon>
                        </g>
                        <g id="short-box-bottom" transform="translate(397.000000, 49.000000)" fill="url(#linearGradient-6)">
                            <polygon id="Rectangle" points="3.125 98.4375 100 50 196.875 98.4375 100 146.875"></polygon>
                        </g>
                        <g id="short-box" transform="translate(397.000000, 0.000000)">
                            <g id="Group-6" transform="translate(3.125000, 7.812500)">
                                <mask id="mask-9" fill="white">
                                    <use xlink:href="#path-8"></use>
                                </mask>
                                <use id="Path-2-Copy-2" fill="url(#linearGradient-7)" xlink:href="#path-8"></use>
                                <polygon id="Path-4" fill-opacity="0.0512624547" fill="#000000" mask="url(#mask-9)" points="193.75 84.7142857 193.75 48.4375 96.875 96.7053571 96.875 132.982143"></polygon>
                                <polygon id="Mask-Copy-6" fill="url(#linearGradient-10)" opacity="0.2" mask="url(#mask-9)" points="96.496582 -0.303571429 193.371582 47.9642857 193.371582 84.3928571 96.496582 36.125"></polygon>
                                <polygon id="Path-4" fill-opacity="0.0512624547" fill="#000000" mask="url(#mask-9)" points="96.875 36.2767857 96.875 -2.34479103e-13 0 48.2678571 0 84.5446429"></polygon>
                                <polygon id="Rectangle" stroke="#FFFFFF" stroke-width="0.5" opacity="0.75" mask="url(#mask-9)" points="96.875 -153.125 346.875 -28.0570652 96.875 96.875 -153.125 -28.0570652"></polygon>
                            </g>
                        </g>
                        <g id="short-box" transform="translate(100.000000, 100.000000)">
                            <g id="Group-6" transform="translate(3.109375, 7.708333)">
                                <mask id="mask-13" fill="white">
                                    <use xlink:href="#path-12"></use>
                                </mask>
                                <use id="Path-2-Copy-2" fill="url(#linearGradient-11)" xlink:href="#path-12"></use>
                                <polygon id="Path-4" fill-opacity="0.0512624547" fill="#000000" mask="url(#mask-13)" points="192.78125 83.5847619 192.78125 47.7916667 96.390625 95.4159524 96.390625 131.209048"></polygon>
                                <polygon id="Mask-Copy-6" fill="url(#linearGradient-14)" opacity="0.2" mask="url(#mask-13)" points="96.0140991 -0.29952381 192.404724 47.3247619 192.404724 83.267619 96.0140991 35.6433333"></polygon>
                                <polygon id="Path-4" fill-opacity="0.0512624547" fill="#000000" mask="url(#mask-13)" points="96.390625 35.7930952 96.390625 -2.34479103e-13 0 47.6242857 0 83.417381"></polygon>
                                <polygon id="Rectangle" stroke="#FFFFFF" stroke-width="0.5" opacity="0.75" mask="url(#mask-13)" points="96.390625 -151.083333 345.140625 -27.682971 96.390625 95.5833333 -152.359375 -27.682971"></polygon>
                            </g>
                        </g>
                        <g id="short-box-bottom" transform="translate(198.000000, 150.000000)" fill="url(#linearGradient-1)">
                            <polygon id="Rectangle" points="3.109375 97.125 99.5 49.3333333 195.890625 97.125 99.5 144.916667"></polygon>
                        </g>
                        <g id="short-box" transform="translate(198.000000, 100.000000)">
                            <g id="Group-6" transform="translate(3.109375, 7.708333)">
                                <mask id="mask-16" fill="white">
                                    <use xlink:href="#path-15"></use>
                                </mask>
                                <use id="Path-2-Copy-2" fill="url(#linearGradient-11)" xlink:href="#path-15"></use>
                                <polygon id="Path-4" fill-opacity="0.0512624547" fill="#000000" mask="url(#mask-16)" points="192.78125 83.5847619 192.78125 47.7916667 96.390625 95.4159524 96.390625 131.209048"></polygon>
                                <polygon id="Mask-Copy-6" fill="url(#linearGradient-14)" opacity="0.2" mask="url(#mask-16)" points="96.0140991 -0.29952381 192.404724 47.3247619 192.404724 83.267619 96.0140991 35.6433333"></polygon>
                                <polygon id="Path-4" fill-opacity="0.0512624547" fill="#000000" mask="url(#mask-16)" points="96.390625 35.7930952 96.390625 -2.34479103e-13 0 47.6242857 0 83.417381"></polygon>
                                <polygon id="Rectangle" stroke="#FFFFFF" stroke-width="0.5" opacity="0.75" mask="url(#mask-16)" points="96.390625 -151.083333 345.140625 -27.682971 96.390625 95.5833333 -152.359375 -27.682971"></polygon>
                            </g>
                        </g>
                        <g id="short-box-bottom" opacity="0.600000024" transform="translate(198.000000, 347.000000)" fill="url(#linearGradient-17)">
                            <polygon id="Rectangle" points="3.109375 98.4375 99.5 50 195.890625 98.4375 99.5 146.875"></polygon>
                        </g>
                        <g id="short-box" transform="translate(198.000000, 298.000000)">
                            <g id="Group-6" transform="translate(3.109375, 7.812500)">
                                <mask id="mask-20" fill="white">
                                    <use xlink:href="#path-19"></use>
                                </mask>
                                <use id="Path-2-Copy-2" fill="url(#linearGradient-18)" xlink:href="#path-19"></use>
                                <polygon id="Path-4" fill-opacity="0.0512624547" fill="#000000" mask="url(#mask-20)" points="192.78125 84.7142857 192.78125 48.4375 96.390625 96.7053571 96.390625 132.982143"></polygon>
                                <polygon id="Mask-Copy-6" fill="url(#linearGradient-21)" opacity="0.2" mask="url(#mask-20)" points="96.0140991 -0.303571429 192.404724 47.9642857 192.404724 84.3928571 96.0140991 36.125"></polygon>
                                <polygon id="Path-4" fill-opacity="0.0512624547" fill="#000000" mask="url(#mask-20)" points="96.390625 36.2767857 96.390625 -2.34479103e-13 0 48.2678571 0 84.5446429"></polygon>
                                <polygon id="Rectangle" stroke="#FFFFFF" stroke-width="0.5" opacity="0.75" mask="url(#mask-20)" points="96.390625 -153.125 345.140625 -28.0570652 96.390625 96.875 -152.359375 -28.0570652"></polygon>
                            </g>
                        </g>
                    </g>
                </g>
            </g>
        </g>
    </g>
</svg>