<?xml version="1.0" encoding="UTF-8"?>
<svg width="245px" height="363px" viewBox="0 0 245 363" version="1.1" xmlns="http://www.w3.org/2000/svg" xmlns:xlink="http://www.w3.org/1999/xlink">
    <!-- Generator: Sketch 59.1 (86144) - https://sketch.com -->
    <title>Group 16</title>
    <desc>Created with Sketch.</desc>
    <g id="04-Hi-Fi" stroke="none" stroke-width="1" fill="none" fill-rule="evenodd">
        <g id="45-copy" transform="translate(-944.000000, -229.000000)">
            <g id="Group-16" transform="translate(943.898981, 228.948279)">
                <g id="Group-2" transform="translate(0.101019, 0.051721)">
                    <rect id="Rectangle" fill="#0F6DFF" x="0" y="0" width="245" height="79" rx="20"></rect>
                    <rect id="Rectangle-Copy" fill="#0DB5B3" x="0" y="188" width="245" height="79" rx="20"></rect>
                    <rect id="Rectangle-Copy-2" fill="#0DB5B3" x="0" y="284" width="245" height="79" rx="20"></rect>
                    <g id="noun_Loop_2596204" transform="translate(102.000000, 112.000000)" fill="#FFFFFF" fill-rule="nonzero">
                        <g id="Group">
                            <path d="M32.25,32.25 L4.3,32.25 L4.3,27.95 C4.3,26.7625878 3.33741221,25.8 2.15,25.8 C0.962587788,25.8 0,26.7625878 0,27.95 L0,34.4 C0,35.5874122 0.962587788,36.55 2.15,36.55 L32.25,36.55 L32.25,43 L43,34.4 L32.25,25.8 L32.25,32.25 Z" id="Path"></path>
                            <path d="M40.85,6.45 L10.75,6.45 L10.75,0 L0,8.6 L10.75,17.2 L10.75,10.75 L38.7,10.75 L38.7,15.05 C38.7,16.2374122 39.6625878,17.2 40.85,17.2 C42.0374122,17.2 43,16.2374122 43,15.05 L43,8.6 C43,7.41258779 42.0374122,6.45 40.85,6.45 Z" id="Path"></path>
                        </g>
                    </g>
                    <text id="control" font-family="IBMPlexSans-Light, IBM Plex Sans" font-size="15" font-weight="300" fill="#F4F4F4">
                        <tspan x="0" y="140">control</tspan>
                    </text>
                    <text id="analytics" font-family="IBMPlexSans-Light, IBM Plex Sans" font-size="15" font-weight="300" fill="#F4F4F4">
                        <tspan x="186.335" y="139">analytics</tspan>
                    </text>
                    <text id="Kubernetes" font-family="IBMPlexSans-Light, IBM Plex Sans" font-size="20" font-weight="300" fill="#FFFFFF">
                        <tspan x="94" y="331">Kubernetes</tspan>
                    </text>
                    <text id="Istio" font-family="IBMPlexSans-Light, IBM Plex Sans" font-size="20" font-weight="300" fill="#FFFFFF">
                        <tspan x="119" y="239">Istio</tspan>
                    </text>
                    <text id="iter8" font-family="IBMPlexSans-Light, IBM Plex Sans" font-size="20" font-weight="300" fill="#FFFFFF">
                        <tspan x="102" y="45">iter8</tspan>
                    </text>
                </g>
                <path d="M83.0309651,250.103486 L71,244.093097 L103.068991,244.093097 L83.0309651,250.103486 Z M83.0309651,218.034495 L71,242.086239 L83.0309651,240.07938 L83.0309651,218.034495 Z M85.0276367,202 L85.0276367,240.07938 L103.068991,242.086239 L85.0276367,202 Z" id="Shape" fill="#FFFFFF" fill-rule="nonzero"></path>
                <g id="Group-13" transform="translate(41.101019, 304.051721)" fill="#FFFFFF" fill-rule="nonzero">
                    <path d="M20.5059699,1 C20.8815479,1 21.2571258,1.07866761 21.6058769,1.23600283 L35.1803386,7.55563429 C35.8778405,7.89652727 36.4143806,8.52586817 36.5753426,9.26009921 L39.9287175,23.4989369 C40.1165065,24.2593904 39.9287175,25.0460666 39.4190046,25.649185 L30.0295547,37.0559886 C29.5466687,37.659107 28.7955128,38 28.0175297,38 L12.967583,38 C12.1896,38 11.438444,37.659107 10.955558,37.0559886 L1.56610819,25.649185 C1.0832222,25.0460666 0.895433205,24.2593904 1.0563952,23.4989369 L4.40977014,9.26009921 C4.59755914,8.49964563 5.10727212,7.87030474 5.80477412,7.55563429 L19.3792359,1.2097803 C19.7279868,1.07866761 20.1303919,1 20.5059699,1 L20.5059699,1 Z M20.5397656,0 L20.5397656,0 C19.9830475,0 19.4263294,0.132802125 18.8961217,0.371845948 L5.48186659,6.79946878 C4.42145118,7.30411685 3.67916037,8.23373173 3.41405651,9.37583 L0.100258329,23.7981407 C-0.164845526,24.940239 0.100258329,26.1088977 0.842549123,27.0385126 L10.1211841,38.5922974 C10.8369645,39.4953518 11.9238903,40 13.0638368,40 L27.9361631,40 C29.0761096,40 30.1630355,39.4953518 30.8788159,38.5922974 L40.1574509,27.0385126 C40.8997417,26.1354581 41.1648455,24.940239 40.8997417,23.7981407 L37.5859435,9.37583 C37.3208397,8.23373173 36.5785489,7.30411685 35.5181334,6.79946878 L22.1568991,0.371845948 C21.6532017,0.132802125 21.0964837,0 20.5397656,0 L20.5397656,0 L20.5397656,0 Z" id="Shape"></path>
                    <path d="M34.2116313,23.0540541 C34.1853522,23.0540541 34.1590733,23.0540541 34.1590733,23.027027 C34.1065154,23.027027 34.0539575,23 34.0013995,23 C33.8174467,22.972973 33.6597731,22.9459459 33.5020993,22.9459459 C33.4232624,22.9459459 33.3444255,22.9459459 33.2393097,22.9189189 L33.2130307,22.9189189 C32.6611726,22.864865 32.2144302,22.8108108 31.7939668,22.6756756 C31.610014,22.5945947 31.557456,22.4864864 31.5048982,22.3783783 C31.5048982,22.3513514 31.4786193,22.3513514 31.4786193,22.3243244 L31.1369928,22.2162163 C31.2946666,20.9729729 31.2421086,19.6756756 30.95304,18.4054055 C30.6639715,17.1351351 30.1646712,15.9459459 29.4814182,14.8648649 L29.7442077,14.6216216 L29.7442077,14.5675676 C29.7442077,14.4324324 29.7704868,14.2972973 29.8756026,14.1621622 C30.1909501,13.8648649 30.5851346,13.6216216 31.0581559,13.3243243 C31.1369928,13.2702703 31.2158297,13.2432432 31.2946666,13.1891892 C31.4523402,13.1081081 31.5837351,13.027027 31.7414088,12.9189189 C31.7676878,12.8918919 31.8202457,12.8648649 31.8728037,12.8108108 C31.8990826,12.7837838 31.9253617,12.7837838 31.9253617,12.7567568 C32.2932671,12.4324324 32.3721039,11.8918919 32.1093144,11.5405405 C31.9779195,11.3513513 31.7414088,11.2432432 31.5048982,11.2432432 C31.2946666,11.2432432 31.1107139,11.3243243 30.926761,11.4594595 C30.9004821,11.4864865 30.9004821,11.4864865 30.8742031,11.5135135 C30.8216451,11.5405405 30.7953662,11.5945946 30.7428082,11.6216216 C30.6114135,11.7567568 30.5062977,11.8648649 30.4011819,12 C30.3486239,12.0540541 30.296066,12.1351351 30.2172291,12.1891892 C29.8493237,12.5945946 29.5076972,12.9189189 29.1660706,13.1621622 C29.0872337,13.2162162 29.0083968,13.2432432 28.9295599,13.2432432 C28.8770021,13.2432432 28.8244441,13.2432432 28.7718863,13.2162162 L28.7193283,13.2162162 L28.4039808,13.4324324 C28.0623543,13.054054 27.6944488,12.7297297 27.3265434,12.4054054 C25.7498056,11.1351351 23.8314414,10.3513513 21.8342404,10.1621622 L21.8079614,9.81081081 C21.7816824,9.78378378 21.7816824,9.78378378 21.7554035,9.75675675 C21.6765665,9.67567567 21.5714507,9.5945946 21.5451718,9.4054054 C21.5188929,8.97297297 21.5714507,8.48648649 21.6240087,7.94594595 L21.6240087,7.91891892 C21.6240087,7.83783783 21.6502876,7.72972972 21.6765665,7.64864865 C21.7028456,7.48648648 21.7291245,7.32432432 21.7554035,7.13513512 L21.7554035,6.97297297 L21.7554035,6.89189188 C21.7554035,6.4054054 21.387498,6 20.9407556,6 C20.730524,6 20.5202924,6.1081081 20.3626186,6.27027027 C20.2049447,6.43243243 20.1261078,6.64864864 20.1261078,6.89189188 L20.1261078,6.94594594 L20.1261078,7.10810811 C20.1261078,7.29729729 20.1523868,7.45945945 20.2049447,7.62162162 C20.2312237,7.70270269 20.2312237,7.78378378 20.2575027,7.89189189 L20.2575027,7.91891892 C20.3100606,8.45945946 20.3888975,8.94594594 20.3363395,9.37837837 C20.3100606,9.56756757 20.2049447,9.64864864 20.1261078,9.72972972 C20.0998289,9.75675675 20.0998289,9.75675675 20.07355,9.78378378 L20.0472709,10.1351351 C19.5742497,10.1891892 19.1012284,10.2432432 18.6282071,10.3513513 C16.604727,10.8108108 14.8177576,11.8648649 13.4249727,13.3783784 L13.1621831,13.1891892 L13.1096251,13.1891892 C13.0570672,13.1891892 13.0045093,13.2162162 12.9519514,13.2162162 C12.8731145,13.2162162 12.7942776,13.1891892 12.7154407,13.1351351 C12.3738142,12.8918919 12.0321877,12.5405405 11.6642823,12.1351351 C11.6117243,12.0810811 11.5591664,12 11.4803295,11.9459459 C11.3752137,11.8108108 11.2700978,11.7027027 11.138703,11.5675676 C11.1124241,11.5405405 11.0598661,11.5135135 11.0073082,11.4594595 C10.9810293,11.4324324 10.9547503,11.4324324 10.9547503,11.4054054 C10.7970765,11.2702703 10.5868448,11.1891892 10.3766132,11.1891892 C10.1401025,11.1891892 9.90359184,11.2972973 9.77219704,11.4864865 C9.50940742,11.8378378 9.5882443,12.3783784 9.95614976,12.7027027 C9.98242873,12.7027027 9.98242873,12.7297297 10.0087077,12.7297297 C10.0612656,12.7567568 10.0875446,12.8108108 10.1401025,12.8378378 C10.2977763,12.945946 10.4291711,13.027027 10.5868448,13.1081081 C10.6656817,13.1351351 10.7445186,13.1891892 10.8233555,13.2432432 C11.2963768,13.5405405 11.6905612,13.7837838 12.0059088,14.0810811 C12.1373036,14.2162162 12.1373036,14.3513514 12.1373036,14.4864865 L12.1373036,14.5405405 L12.4000932,14.7837838 C12.3475353,14.8648649 12.2949773,14.9189189 12.2686984,15 C10.9547503,17.1351351 10.45545,19.6486487 10.7970765,22.1351352 L10.45545,22.2432433 C10.45545,22.2702703 10.4291711,22.2702703 10.4291711,22.2972972 C10.3766132,22.4054055 10.2977763,22.5135136 10.1401025,22.5945947 C9.74591808,22.7297297 9.27289677,22.7837839 8.72103858,22.8378378 L8.69475962,22.8378378 C8.61592273,22.8378378 8.51080688,22.8378378 8.43197,22.864865 C8.27429623,22.864865 8.11662246,22.8918919 7.93266974,22.9189189 C7.88011181,22.9189189 7.82755389,22.9459459 7.77499596,22.9459459 C7.748717,22.9459459 7.72243803,22.9459459 7.69615907,22.972973 C7.22313777,23.0810811 6.93406919,23.5405406 7.01290608,23.9729729 C7.09174297,24.3513513 7.43336946,24.5945946 7.85383285,24.5945946 C7.93266974,24.5945946 7.98522765,24.5945946 8.06406454,24.5675676 C8.0903435,24.5675676 8.11662246,24.5675676 8.11662246,24.5405406 C8.16918039,24.5405406 8.2217383,24.5135135 8.27429623,24.5135135 C8.45824897,24.4594595 8.58964377,24.4054054 8.74731754,24.3243243 C8.82615442,24.2972973 8.90499131,24.2432432 8.9838282,24.2162162 L9.01010716,24.2162162 C9.50940742,24.027027 9.95614976,23.8648648 10.3766132,23.8108109 L10.4291711,23.8108109 C10.5868448,23.8108109 10.6919607,23.891892 10.7707976,23.9459459 C10.7970765,23.9459459 10.7970765,23.9729729 10.8233555,23.9729729 L11.191261,23.918919 C11.821956,25.9189189 13.0307883,27.7027026 14.6338049,29 C15.0017104,29.2972974 15.3696158,29.5405405 15.7638003,29.7837838 L15.6061265,30.1351352 C15.6061265,30.1621622 15.6324054,30.1621622 15.6324054,30.1891892 C15.6849634,30.2972973 15.7375213,30.4324325 15.6849634,30.6216217 C15.5272896,31.027027 15.2907789,31.4324325 15.0017104,31.8918918 L15.0017104,31.918919 C14.9491525,32 14.8965945,32.054054 14.8440366,32.1351351 C14.7389208,32.2702704 14.6600839,32.4054054 14.554968,32.5675676 C14.5286891,32.5945946 14.5024101,32.6486487 14.4761311,32.7027027 C14.4761311,32.7297297 14.4498522,32.7567568 14.4498522,32.7567568 C14.2396205,33.2162163 14.3972943,33.7297297 14.7914787,33.9189189 C14.8965945,33.972973 15.0017104,34 15.1068262,34 C15.4221738,34 15.7375213,33.7837838 15.8951951,33.4864866 C15.8951951,33.4594594 15.921474,33.4324324 15.921474,33.4324324 C15.947753,33.3783783 15.974032,33.3243244 16.0003109,33.2972974 C16.0791478,33.1081082 16.1054268,32.972973 16.1579847,32.8108108 C16.1842636,32.7297297 16.2105426,32.6486487 16.2368216,32.5675676 C16.4207743,32.0270271 16.5521692,31.5945946 16.7886797,31.2162162 C16.8937955,31.054054 17.0251904,31.027027 17.1303062,30.9729731 C17.1565852,30.9729731 17.1565852,30.9729731 17.1828642,30.9459459 L17.366817,30.5945947 C18.5230911,31.054054 19.7844813,31.2972973 21.0458715,31.2972973 C21.8079614,31.2972973 22.5963302,31.2162162 23.3321412,31.027027 C23.8051625,30.9189189 24.2519049,30.7837839 24.6986472,30.6216217 L24.8563209,30.9189189 C24.8825999,30.9189189 24.8825999,30.9189189 24.9088789,30.9459459 C25.0402736,30.9729731 25.1453896,31.027027 25.2505054,31.1891892 C25.460737,31.5675676 25.6184108,32.0270271 25.8023636,32.5405405 L25.8023636,32.5675676 C25.8286425,32.6486487 25.8549214,32.7297297 25.8812005,32.8108108 C25.9337583,32.972973 25.9600374,33.1351352 26.0388741,33.2972974 C26.0651532,33.3513513 26.0914321,33.3783783 26.117711,33.4324324 C26.117711,33.4594594 26.1439901,33.4864866 26.1439901,33.4864866 C26.3016638,33.8108108 26.6170114,34 26.9323588,34 C27.0374748,34 27.1425906,33.972973 27.2477065,33.9189189 C27.4316592,33.8108108 27.589333,33.6486486 27.6418908,33.4324324 C27.6944488,33.2162163 27.6944488,32.972973 27.589333,32.7567568 C27.589333,32.7297297 27.5630539,32.7297297 27.5630539,32.7027027 C27.536775,32.6486487 27.5104961,32.5945946 27.484217,32.5675676 C27.4053803,32.4054054 27.3002643,32.2702704 27.1951485,32.1351351 C27.1425906,32.054054 27.0900326,32 27.0374748,31.918919 L27.0374748,31.8918918 C26.7484061,31.4324325 26.4856165,31.027027 26.3542217,30.6216217 C26.3016638,30.4324325 26.3542217,30.3243244 26.3805007,30.1891892 C26.3805007,30.1621622 26.4067797,30.1621622 26.4067797,30.1351352 L26.2753848,29.8108108 C27.6681697,28.972973 28.8507232,27.7837837 29.7442077,26.3243244 C30.2172291,25.5675677 30.5851346,24.7297298 30.8479242,23.891892 L31.1632717,23.9459459 C31.1895506,23.9459459 31.1895506,23.918919 31.2158297,23.918919 C31.3209455,23.8648648 31.3997824,23.7837837 31.557456,23.7837837 L31.610014,23.7837837 C32.0304775,23.8378379 32.4772198,24 32.97652,24.1891892 L33.0027989,24.1891892 C33.0816358,24.2162162 33.1604727,24.2702703 33.2393097,24.2972973 C33.3969835,24.3783784 33.5283782,24.4324324 33.7123309,24.4864865 C33.7648889,24.4864865 33.8174467,24.5135135 33.8700047,24.5135135 C33.8962836,24.5135135 33.9225627,24.5135135 33.9488416,24.5405406 C34.0276785,24.5675676 34.0802364,24.5675676 34.1590733,24.5675676 C34.5532578,24.5675676 34.8948842,24.2972973 35,23.9459459 C35,23.6216217 34.7109315,23.1891892 34.2379102,23.0540541 L34.2116313,23.0540541 Z M21.7247706,21.4056604 L20.5137614,22 L19.3027523,21.4056604 L19,20.0754717 L19.8256881,19 L21.1743119,19 L22,20.0754717 L21.7247706,21.4056604 L21.7247706,21.4056604 Z M28.7607331,19.4234694 C28.9906829,20.2908163 29.0481702,21.1581633 28.9619391,22 L24.5641511,20.8775511 C24.1617392,20.7755103 23.9317895,20.4183673 24.0180207,20.0612244 C24.0467644,19.9591837 24.1042517,19.8571429 24.1904828,19.7806122 L27.668472,17 C28.1571151,17.7142857 28.5307834,18.5306122 28.7607331,19.4234694 L28.7607331,19.4234694 Z M27,14.3630602 L23.3611111,16.8890901 C23.0555556,17.0792213 22.6388889,17.0248982 22.3888889,16.7261204 C22.3055555,16.6446357 22.2777778,16.5359891 22.2500001,16.4273427 L22,12 C23.9166667,12.2172929 25.6666668,13.0593028 27,14.3630602 L27,14.3630602 Z M19.116022,12.1612903 C19.4198894,12.1075269 19.6961325,12.0537634 20,12 L19.7513812,16.3010752 C19.7237569,16.6774193 19.4198894,17 19.0055248,17 C18.8950276,17 18.7569059,16.9731182 18.6740332,16.9193548 L15,14.3655914 C16.1325967,13.2634408 17.5414365,12.5107527 19.116022,12.1612903 L19.116022,12.1612903 Z M13.3272977,17 L16.7397637,19.7040816 C17.0552017,19.9336735 17.0838778,20.367347 16.8257921,20.6479592 C16.7397637,20.75 16.6250588,20.8265306 16.481678,20.8520408 L12.0368694,22 C11.8648123,20.2653062 12.294955,18.5051021 13.3272977,17 L13.3272977,17 Z M13,23.7354517 L17.2364559,23.002058 C17.5828328,22.9748954 17.9025654,23.21936 17.9824986,23.5724753 C18.0091429,23.7354517 18.0091429,23.8712654 17.9558541,24.007079 L17.9558541,24.007079 L16.3305472,28 C14.838462,27.0221417 13.6394651,25.5281917 13,23.7354517 L13,23.7354517 Z M22.2749999,28.7631076 C21.7,28.9111653 21.125,29 20.525,29 C19.65,29 18.8,28.8223308 18,28.5262151 L19.9749999,24.2917616 C20.175,24.0252576 20.5,23.9068112 20.775,24.0844806 C20.8999999,24.1733154 21,24.2917616 21.0749999,24.4102078 L21.0749999,24.4102078 L23,28.5262151 C22.7749999,28.6150498 22.5249999,28.6742728 22.2749999,28.7631076 L22.2749999,28.7631076 Z M28.2321968,25.3783784 C27.5702975,26.4594594 26.6965902,27.3243244 25.6905032,28 L24.0225168,23.9189189 C23.9430888,23.5945945 24.0754686,23.2432433 24.3931804,23.0810811 C24.4990843,23.027027 24.6314641,23 24.7638441,23 L29,23.7297297 C28.8411441,24.3243243 28.5763845,24.8648648 28.2321968,25.3783784 L28.2321968,25.3783784 Z" id="Shape"></path>
                </g>
            </g>
        </g>
    </g>
</svg>