<?xml version="1.0" encoding="UTF-8"?>
<svg width="64px" height="66px" viewBox="0 0 64 66" version="1.1" xmlns="http://www.w3.org/2000/svg" xmlns:xlink="http://www.w3.org/1999/xlink">
    <!-- Generator: Sketch 59.1 (86144) - https://sketch.com -->
    <title>Group</title>
    <desc>Created with Sketch.</desc>
    <g id="05-Logo" stroke="none" stroke-width="1" fill="none" fill-rule="evenodd" stroke-linecap="round">
        <g id="Group" transform="translate(0.395062, 1.395034)" fill="#FFFFFF" stroke="#FFFFFF">
            <path d="M17.3827261,39.9149233 C17.3827261,36.1866473 20.2018861,33.1852063 23.7037121,33.1852063 C27.2055391,33.1852063 30.0246981,36.1866473 30.0246981,39.9149233 L30.0246981,56.4801733 C30.0246981,60.2083703 27.2055391,63.2098903 23.7037121,63.2098903 C20.2018861,63.2098903 17.3827261,60.2083703 17.3827261,56.4801733 L17.3827261,39.9149233 Z" id="Path" stroke-width="0.790123" stroke-linejoin="round"></path>
            <path d="M39.9148291,45.8271783 C36.1866331,45.8271783 33.1851911,43.0080183 33.1851911,39.5061923 C33.1851911,36.0043663 36.1866331,33.1852063 39.9148291,33.1852063 L56.4802381,33.1852063 C60.2084351,33.1852063 63.2098761,36.0043663 63.2098761,39.5061923 C63.2098761,43.0080183 60.2084351,45.8271783 56.4802381,45.8271783 L39.9148291,45.8271783 Z" id="Path" stroke-width="0.790123" stroke-linejoin="round"></path>
            <path d="M33.1851911,6.72966601 C33.1851911,3.00146971 36.0043511,2.84317738e-05 39.5061781,2.84317738e-05 C43.0080041,2.84317738e-05 45.8271641,3.00146971 45.8271641,6.72966601 L45.8271641,23.2949963 C45.8271641,27.0232713 43.0080041,30.0247133 39.5061781,30.0247133 C36.0043511,30.0247133 33.1851911,27.0232713 33.1851911,23.2949963 L33.1851911,6.72966601 Z" id="Path" stroke-width="0.790123" stroke-linejoin="round"></path>
            <path d="M6.72965227,30.0247133 C3.00145557,30.0247133 1.43132322e-05,27.2055533 1.43132322e-05,23.7037263 C1.43132322e-05,20.2019003 3.00145557,17.3827403 6.72965227,17.3827403 L23.2949811,17.3827403 C27.0232571,17.3827403 30.0246981,20.2019003 30.0246981,23.7037263 C30.0246981,27.2055533 27.0232571,30.0247133 23.2949811,30.0247133 L6.72965227,30.0247133 Z" id="Path" stroke-width="0.790123" stroke-linejoin="round"></path>
            <path d="M33.1851778,56.8889048 C33.181616,58.5664283 33.8464267,60.1762745 35.0326176,61.3624655 C36.2188086,62.5486565 37.8286548,63.2134671 39.5061784,63.2099053 C43.0080047,63.2099053 45.8271789,60.3907311 45.8271789,56.8889048 C45.8307407,55.2113812 45.1659301,53.601535 43.9797391,52.415344 C42.7935481,51.229153 41.1837019,50.5643424 39.5061784,50.5679042 L33.1851778,50.5679042 L33.1851778,56.8889048 Z" id="Path" stroke-width="0.79012328"></path>
            <path d="M56.8888905,30.0247132 L50.5679043,30.0247132 L50.5679043,23.703727 C50.5679043,20.2019006 53.3870641,17.3827408 56.8888905,17.3827408 C60.3907169,17.3827408 63.2098768,20.2019006 63.2098768,23.703727 C63.2098768,27.2055534 60.3907169,30.0247132 56.8888905,30.0247132 Z" id="Path" stroke-width="0.79012328"></path>
            <path d="M6.32100059,33.1852064 L12.6419868,33.1852064 L12.6419868,39.5061926 C12.6419868,43.008019 9.82282697,45.8271932 6.32100059,45.8271932 C4.64347705,45.830755 3.03363082,45.1659443 1.84743986,43.9797533 C0.661248891,42.7935624 -0.00356179542,41.1837161 -7.10542736e-15,39.5061926 C-7.10542736e-15,36.0043662 2.81917422,33.1852064 6.32100059,33.1852064 L6.32100059,33.1852064 Z" id="Path" stroke-width="0.79012328"></path>
            <path d="M30.0247276,12.6420297 L23.7037128,12.6420297 C22.0261892,12.6455772 20.416343,11.9807665 19.230152,10.7945756 C18.0439611,9.6083846 17.3791504,7.99853837 17.3826979,6.32101483 C17.3826979,2.81918845 20.2018864,-9.76996262e-15 23.7037128,-9.76996262e-15 C25.3812363,-0.00354755688 26.9910825,0.66126313 28.1772735,1.8474541 C29.3634645,3.03364506 30.0282751,4.64349129 30.0247276,6.32101483 L30.0247276,12.6420297 Z" id="Path" stroke-width="0.79012328"></path>
        </g>
    </g>
</svg>